<?xml version="1.0" encoding="UTF-8"?>
<svg xmlns="http://www.w3.org/2000/svg" xmlns:xlink="http://www.w3.org/1999/xlink"
     width="140" height="140" viewBox="0 -1400 1400 1400">
<defs>
</defs>
<rect x="215" y="-285" width="70" height="70" rx="15" fill="#84A1AE" />
<rect x="215" y="-385" width="70" height="70" rx="15" fill="#84A1AE" />
<rect x="215" y="-485" width="70" height="70" rx="15" fill="#84A1AE" />
<rect x="215" y="-585" width="70" height="70" rx="15" fill="#84A1AE" />
<rect x="215" y="-685" width="70" height="70" rx="15" fill="#84A1AE" />
<rect x="215" y="-785" width="70" height="70" rx="15" fill="#84A1AE" />
<rect x="215" y="-885" width="70" height="70" rx="15" fill="#84A1AE" />
<rect x="215" y="-985" width="70" height="70" rx="15" fill="#84A1AE" />
<rect x="215" y="-1085" width="70" height="70" rx="15" fill="#84A1AE" />
<rect x="215" y="-1185" width="70" height="70" rx="15" fill="#84A1AE" />
<rect x="315" y="-285" width="70" height="70" rx="15" fill="#84A1AE" />
<rect x="315" y="-885" width="70" height="70" rx="15" fill="#84A1AE" />
<rect x="315" y="-1185" width="70" height="70" rx="15" fill="#84A1AE" />
<rect x="415" y="-285" width="70" height="70" rx="15" fill="#84A1AE" />
<rect x="415" y="-985" width="70" height="70" rx="15" fill="#84A1AE" />
<rect x="415" y="-1085" width="70" height="70" rx="15" fill="#84A1AE" />
<rect x="415" y="-1185" width="70" height="70" rx="15" fill="#84A1AE" />
<rect x="515" y="-285" width="70" height="70" rx="15" fill="#84A1AE" />
<rect x="515" y="-485" width="70" height="70" rx="15" fill="#84A1AE" />
<rect x="515" y="-585" width="70" height="70" rx="15" fill="#84A1AE" />
<rect x="515" y="-685" width="70" height="70" rx="15" fill="#84A1AE" />
<rect x="515" y="-785" width="70" height="70" rx="15" fill="#84A1AE" />
<rect x="515" y="-885" width="70" height="70" rx="15" fill="#84A1AE" />
<rect x="515" y="-985" width="70" height="70" rx="15" fill="#84A1AE" />
<rect x="515" y="-1185" width="70" height="70" rx="15" fill="#84A1AE" />
<rect x="615" y="-285" width="70" height="70" rx="15" fill="#84A1AE" />
<rect x="615" y="-385" width="70" height="70" rx="15" fill="#84A1AE" />
<rect x="615" y="-785" width="70" height="70" rx="15" fill="#84A1AE" />
<rect x="615" y="-1085" width="70" height="70" rx="15" fill="#84A1AE" />
<rect x="615" y="-1185" width="70" height="70" rx="15" fill="#84A1AE" />
<rect x="715" y="-285" width="70" height="70" rx="15" fill="#84A1AE" />
<rect x="715" y="-585" width="70" height="70" rx="15" fill="#84A1AE" />
<rect x="715" y="-685" width="70" height="70" rx="15" fill="#84A1AE" />
<rect x="715" y="-1185" width="70" height="70" rx="15" fill="#84A1AE" />
<rect x="815" y="-285" width="70" height="70" rx="15" fill="#84A1AE" />
<rect x="815" y="-485" width="70" height="70" rx="15" fill="#84A1AE" />
<rect x="815" y="-585" width="70" height="70" rx="15" fill="#84A1AE" />
<rect x="815" y="-685" width="70" height="70" rx="15" fill="#84A1AE" />
<rect x="815" y="-885" width="70" height="70" rx="15" fill="#84A1AE" />
<rect x="815" y="-985" width="70" height="70" rx="15" fill="#84A1AE" />
<rect x="815" y="-1085" width="70" height="70" rx="15" fill="#84A1AE" />
<rect x="815" y="-1185" width="70" height="70" rx="15" fill="#84A1AE" />
<rect x="915" y="-285" width="70" height="70" rx="15" fill="#84A1AE" />
<rect x="915" y="-985" width="70" height="70" rx="15" fill="#84A1AE" />
<rect x="915" y="-1085" width="70" height="70" rx="15" fill="#84A1AE" />
<rect x="915" y="-1185" width="70" height="70" rx="15" fill="#84A1AE" />
<rect x="1015" y="-285" width="70" height="70" rx="15" fill="#84A1AE" />
<rect x="1015" y="-485" width="70" height="70" rx="15" fill="#84A1AE" />
<rect x="1015" y="-1085" width="70" height="70" rx="15" fill="#84A1AE" />
<rect x="1015" y="-1185" width="70" height="70" rx="15" fill="#84A1AE" />
<rect x="1115" y="-285" width="70" height="70" rx="15" fill="#84A1AE" />
<rect x="1115" y="-385" width="70" height="70" rx="15" fill="#84A1AE" />
<rect x="1115" y="-485" width="70" height="70" rx="15" fill="#84A1AE" />
<rect x="1115" y="-585" width="70" height="70" rx="15" fill="#84A1AE" />
<rect x="1115" y="-685" width="70" height="70" rx="15" fill="#84A1AE" />
<rect x="1115" y="-785" width="70" height="70" rx="15" fill="#84A1AE" />
<rect x="1115" y="-885" width="70" height="70" rx="15" fill="#84A1AE" />
<rect x="1115" y="-985" width="70" height="70" rx="15" fill="#84A1AE" />
<rect x="1115" y="-1085" width="70" height="70" rx="15" fill="#84A1AE" />
<rect x="1115" y="-1185" width="70" height="70" rx="15" fill="#84A1AE" />
<circle cx="450" cy="-850" r="35" fill="#c1433c">
<animate repeatCount="indefinite" keyTimes="0.0;0.0666666667;0.3333333333;0.4;1.0" attributeName="cy" dur="3.9200000000000004s" values="-850;-850;-850;-750;-750" />
<animate repeatCount="indefinite" keyTimes="0.0;0.0666666667;1.0" attributeName="cx" dur="3.9200000000000004s" values="450;450;450" />
<animate repeatCount="indefinite" keyTimes="0.0;0.0666666667;0.3333333333;0.4;1.0" attributeName="visibility" dur="3.9200000000000004s" values="visible;visible;visible;hidden;hidden" />
</circle>
<circle cx="950" cy="-350" r="35" fill="#2e6f9e">
<animate repeatCount="indefinite" keyTimes="0.0;0.0666666667;1.0" attributeName="cy" dur="3.9200000000000004s" values="-350;-350;-350" />
<animate repeatCount="indefinite" keyTimes="0.0;0.0666666667;0.1333333333;1.0" attributeName="cx" dur="3.9200000000000004s" values="950;950;1050;1050" />
<animate repeatCount="indefinite" keyTimes="0.0;0.0666666667;0.1333333333;1.0" attributeName="visibility" dur="3.9200000000000004s" values="visible;visible;hidden;hidden" />
</circle>
<circle cx="1050" cy="-950" r="35" fill="#6e81af">
<animate repeatCount="indefinite" keyTimes="0.0;0.0666666667;0.5333333333;0.6;0.8666666667;0.9333333333;1.0" attributeName="cy" dur="3.9200000000000004s" values="-950;-950;-950;-850;-850;-750;-750" />
<animate repeatCount="indefinite" keyTimes="0.0;0.0666666667;0.6;0.6666666667;0.9333333333;1.0" attributeName="cx" dur="3.9200000000000004s" values="1050;1050;1050;950;950;1050" />
<animate repeatCount="indefinite" keyTimes="0.0;0.0666666667;0.9333333333;1.0" attributeName="visibility" dur="3.9200000000000004s" values="visible;visible;visible;hidden" />
</circle>
<circle cx="450" cy="-750" r="35" stroke="#c1433c" stroke-width="10" fill="none">
<animate repeatCount="indefinite" keyTimes="0.0;0.0666666667;0.3333333333;0.4;1.0" attributeName="visibility" dur="3.9200000000000004s" values="visible;visible;visible;hidden;hidden" />
</circle>
<circle cx="1050" cy="-350" r="35" stroke="#2e6f9e" stroke-width="10" fill="none">
<animate repeatCount="indefinite" keyTimes="0.0;0.0666666667;0.1333333333;1.0" attributeName="visibility" dur="3.9200000000000004s" values="visible;visible;hidden;hidden" />
</circle>
<circle cx="1050" cy="-750" r="35" stroke="#6e81af" stroke-width="10" fill="none">
<animate repeatCount="indefinite" keyTimes="0.0;0.0666666667;0.9333333333;1.0" attributeName="visibility" dur="3.9200000000000004s" values="visible;visible;visible;hidden" />
</circle>
</svg>